#Comment line ignore any data following # character 
#Hierarchical Translation and Rotation (.htr) file 
[Header]	
#Header keywords are followed by a single value 
FileType HTR		#Single word string
DataType HTRS		#Translation followed by rotation and scale data
FileVersion 1		#integer
NumSegments 84		#integer
NumFrames 2		#integer
DataFrameRate 30		#integer, data frame rate in this file
EulerRotationOrder ZYX
CalibrationUnits mm
RotationUnits Degrees
GlobalAxisofGravity Y
BoneLengthAxis Y
ScaleFactor 1.00
[SegmentNames&Hierarchy]
#CHILD	PARENT
MASTER GLOBAL
root MASTER
chest root
L_mid_tent01 root
R_mid_tent01 root
spine01 root
Bip01_Neck chest
L_humerus chest
R_humerus chest
weapon_bone chest
Bip01_Head Bip01_Neck
eye_left_bone Bip01_Head
eye_right_bone Bip01_Head
L_forearm L_humerus
L_front_hand L_forearm
L_weapon_bone L_forearm
L_front_hand01_01 L_front_hand
L_front_hand02_01 L_front_hand
L_front_hand03_01 L_front_hand
L_front_hand01_02 L_front_hand01_01
L_front_hand02_02 L_front_hand02_01
L_front_hand03_02 L_front_hand03_01
R_forearm R_humerus
R_front_hand R_forearm
R_weapon_bone R_forearm
R_front_hand01_01 R_front_hand
R_front_hand02_01 R_front_hand
R_front_hand03_01 R_front_hand
R_front_hand01_02 R_front_hand01_01
R_front_hand02_02 R_front_hand02_01
R_front_hand03_02 R_front_hand03_01
null_rope01_connect L_mid_tent01
Rope1_Seg01 null_rope01_connect
Rope1_Seg02 Rope1_Seg01
Rope1_Seg03 Rope1_Seg02
Rope1_Seg04 Rope1_Seg03
Rope1_Seg05 Rope1_Seg04
Rope1_Seg06 Rope1_Seg05
Rope1_Seg07 Rope1_Seg06
Rope1_Seg09 Rope1_Seg07
L_mid_hand01 Rope1_Seg09
L_mid_hand02 Rope1_Seg09
L_mid_hand03 Rope1_Seg09
null_rope02_connect R_mid_tent01
Rope2_Seg01 null_rope02_connect
Rope2_Seg02 Rope2_Seg01
Rope2_Seg03 Rope2_Seg02
Rope2_Seg04 Rope2_Seg03
Rope2_Seg05 Rope2_Seg04
Rope2_Seg06 Rope2_Seg05
Rope2_Seg07 Rope2_Seg06
Rope2_Seg09 Rope2_Seg07
R_mid_hand01 Rope2_Seg09
R_mid_hand02 Rope2_Seg09
R_mid_hand03 Rope2_Seg09
spine02 spine01
spine03 spine02
pelvis spine03
null_rope03_connect pelvis
null_rope04_connect pelvis
Rope3_Seg01 null_rope03_connect
Rope3_Seg02 Rope3_Seg01
Rope3_Seg03 Rope3_Seg02
Rope3_Seg04 Rope3_Seg03
Rope3_Seg05 Rope3_Seg04
Rope3_Seg06 Rope3_Seg05
Rope3_Seg07 Rope3_Seg06
Rope3_Seg08 Rope3_Seg07
Rope3_Seg09 Rope3_Seg08
R_rear_hand01 Rope3_Seg09
R_rear_hand02 Rope3_Seg09
R_rear_hand03 Rope3_Seg09
Rope4_Seg01 null_rope04_connect
Rope4_Seg02 Rope4_Seg01
Rope4_Seg03 Rope4_Seg02
Rope4_Seg04 Rope4_Seg03
Rope4_Seg05 Rope4_Seg04
Rope4_Seg06 Rope4_Seg05
Rope4_Seg07 Rope4_Seg06
Rope4_Seg08 Rope4_Seg07
Rope4_Seg09 Rope4_Seg08
L_rear_hand01 Rope4_Seg09
L_rear_hand02 Rope4_Seg09
L_rear_hand03 Rope4_Seg09
[BasePosition]
#SegmentName Tx, Ty, Tz, Rx, Ry, Rz, BoneLength
MASTER 0.000000 0.000000 0.000000 -90.000000 0.000000 0.000000 10.000000 
root 0.000000 0.000000 0.000000 0.000000 0.000000 0.000000 10.000000 
chest 0.000000 0.000000 0.000000 0.000000 0.000000 0.000000 10.000000 
L_mid_tent01 0.000000 0.000000 0.000000 0.000000 0.000000 0.000000 10.000000 
R_mid_tent01 0.000000 0.000000 0.000000 0.000000 0.000000 0.000000 10.000000 
spine01 0.000000 0.000000 0.000000 0.000000 0.000000 0.000000 10.000000 
Bip01_Neck 0.000000 0.000000 0.000000 0.000000 0.000000 0.000000 10.000000 
L_humerus 0.000000 0.000000 0.000000 0.000000 0.000000 0.000000 10.000000 
R_humerus 0.000000 0.000000 0.000000 0.000000 0.000000 0.000000 10.000000 
weapon_bone 0.000000 0.000000 0.000000 0.000000 0.000000 0.000000 10.000000 
Bip01_Head 0.000000 0.000000 0.000000 0.000000 0.000000 0.000000 10.000000 
eye_left_bone 0.000000 0.000000 0.000000 0.000000 0.000000 0.000000 10.000000 
eye_right_bone 0.000000 0.000000 0.000000 0.000000 0.000000 0.000000 10.000000 
L_forearm 0.000000 0.000000 0.000000 0.000000 0.000000 0.000000 10.000000 
L_front_hand 0.000000 0.000000 0.000000 0.000000 0.000000 0.000000 10.000000 
L_weapon_bone 0.000000 0.000000 0.000000 0.000000 0.000000 0.000000 10.000000 
L_front_hand01_01 0.000000 0.000000 0.000000 0.000000 0.000000 0.000000 10.000000 
L_front_hand02_01 0.000000 0.000000 0.000000 0.000000 0.000000 0.000000 10.000000 
L_front_hand03_01 0.000000 0.000000 0.000000 0.000000 0.000000 0.000000 10.000000 
L_front_hand01_02 0.000000 0.000000 0.000000 0.000000 0.000000 0.000000 10.000000 
L_front_hand02_02 0.000000 0.000000 0.000000 0.000000 0.000000 0.000000 10.000000 
L_front_hand03_02 0.000000 0.000000 0.000000 0.000000 0.000000 0.000000 10.000000 
R_forearm 0.000000 0.000000 0.000000 0.000000 0.000000 0.000000 10.000000 
R_front_hand 0.000000 0.000000 0.000000 0.000000 0.000000 0.000000 10.000000 
R_weapon_bone 0.000000 0.000000 0.000000 0.000000 0.000000 0.000000 10.000000 
R_front_hand01_01 0.000000 0.000000 0.000000 0.000000 0.000000 0.000000 10.000000 
R_front_hand02_01 0.000000 0.000000 0.000000 0.000000 0.000000 0.000000 10.000000 
R_front_hand03_01 0.000000 0.000000 0.000000 0.000000 0.000000 0.000000 10.000000 
R_front_hand01_02 0.000000 0.000000 0.000000 0.000000 0.000000 0.000000 10.000000 
R_front_hand02_02 0.000000 0.000000 0.000000 0.000000 0.000000 0.000000 10.000000 
R_front_hand03_02 0.000000 0.000000 0.000000 0.000000 0.000000 0.000000 10.000000 
null_rope01_connect 0.000000 0.000000 0.000000 0.000000 0.000000 0.000000 10.000000 
Rope1_Seg01 0.000000 0.000000 0.000000 0.000000 0.000000 0.000000 10.000000 
Rope1_Seg02 0.000000 0.000000 0.000000 0.000000 0.000000 0.000000 10.000000 
Rope1_Seg03 0.000000 0.000000 0.000000 0.000000 0.000000 0.000000 10.000000 
Rope1_Seg04 0.000000 0.000000 0.000000 0.000000 0.000000 0.000000 10.000000 
Rope1_Seg05 0.000000 0.000000 0.000000 0.000000 0.000000 0.000000 10.000000 
Rope1_Seg06 0.000000 0.000000 0.000000 0.000000 0.000000 0.000000 10.000000 
Rope1_Seg07 0.000000 0.000000 0.000000 0.000000 0.000000 0.000000 10.000000 
Rope1_Seg09 0.000000 0.000000 0.000000 0.000000 0.000000 0.000000 10.000000 
L_mid_hand01 0.000000 0.000000 0.000000 0.000000 0.000000 0.000000 10.000000 
L_mid_hand02 0.000000 0.000000 0.000000 0.000000 0.000000 0.000000 10.000000 
L_mid_hand03 0.000000 0.000000 0.000000 0.000000 0.000000 0.000000 10.000000 
null_rope02_connect 0.000000 0.000000 0.000000 0.000000 0.000000 0.000000 10.000000 
Rope2_Seg01 0.000000 0.000000 0.000000 0.000000 0.000000 0.000000 10.000000 
Rope2_Seg02 0.000000 0.000000 0.000000 0.000000 0.000000 0.000000 10.000000 
Rope2_Seg03 0.000000 0.000000 0.000000 0.000000 0.000000 0.000000 10.000000 
Rope2_Seg04 0.000000 0.000000 0.000000 0.000000 0.000000 0.000000 10.000000 
Rope2_Seg05 0.000000 0.000000 0.000000 0.000000 0.000000 0.000000 10.000000 
Rope2_Seg06 0.000000 0.000000 0.000000 0.000000 0.000000 0.000000 10.000000 
Rope2_Seg07 0.000000 0.000000 0.000000 0.000000 0.000000 0.000000 10.000000 
Rope2_Seg09 0.000000 0.000000 0.000000 0.000000 0.000000 0.000000 10.000000 
R_mid_hand01 0.000000 0.000000 0.000000 0.000000 0.000000 0.000000 10.000000 
R_mid_hand02 0.000000 0.000000 0.000000 0.000000 0.000000 0.000000 10.000000 
R_mid_hand03 0.000000 0.000000 0.000000 0.000000 0.000000 0.000000 10.000000 
spine02 0.000000 0.000000 0.000000 0.000000 0.000000 0.000000 10.000000 
spine03 0.000000 0.000000 0.000000 0.000000 0.000000 0.000000 10.000000 
pelvis 0.000000 0.000000 0.000000 0.000000 0.000000 0.000000 10.000000 
null_rope03_connect 0.000000 0.000000 0.000000 0.000000 0.000000 0.000000 10.000000 
null_rope04_connect 0.000000 0.000000 0.000000 0.000000 0.000000 0.000000 10.000000 
Rope3_Seg01 0.000000 0.000000 0.000000 0.000000 0.000000 0.000000 10.000000 
Rope3_Seg02 0.000000 0.000000 0.000000 0.000000 0.000000 0.000000 10.000000 
Rope3_Seg03 0.000000 0.000000 0.000000 0.000000 0.000000 0.000000 10.000000 
Rope3_Seg04 0.000000 0.000000 0.000000 0.000000 0.000000 0.000000 10.000000 
Rope3_Seg05 0.000000 0.000000 0.000000 0.000000 0.000000 0.000000 10.000000 
Rope3_Seg06 0.000000 0.000000 0.000000 0.000000 0.000000 0.000000 10.000000 
Rope3_Seg07 0.000000 0.000000 0.000000 0.000000 0.000000 0.000000 10.000000 
Rope3_Seg08 0.000000 0.000000 0.000000 0.000000 0.000000 0.000000 10.000000 
Rope3_Seg09 0.000000 0.000000 0.000000 0.000000 0.000000 0.000000 10.000000 
R_rear_hand01 0.000000 0.000000 0.000000 0.000000 0.000000 0.000000 10.000000 
R_rear_hand02 0.000000 0.000000 0.000000 0.000000 0.000000 0.000000 10.000000 
R_rear_hand03 0.000000 0.000000 0.000000 0.000000 0.000000 0.000000 10.000000 
Rope4_Seg01 0.000000 0.000000 0.000000 0.000000 0.000000 0.000000 10.000000 
Rope4_Seg02 0.000000 0.000000 0.000000 0.000000 0.000000 0.000000 10.000000 
Rope4_Seg03 0.000000 0.000000 0.000000 0.000000 0.000000 0.000000 10.000000 
Rope4_Seg04 0.000000 0.000000 0.000000 0.000000 0.000000 0.000000 10.000000 
Rope4_Seg05 0.000000 0.000000 0.000000 0.000000 0.000000 0.000000 10.000000 
Rope4_Seg06 0.000000 0.000000 0.000000 0.000000 0.000000 0.000000 10.000000 
Rope4_Seg07 0.000000 0.000000 0.000000 0.000000 0.000000 0.000000 10.000000 
Rope4_Seg08 0.000000 0.000000 0.000000 0.000000 0.000000 0.000000 10.000000 
Rope4_Seg09 0.000000 0.000000 0.000000 0.000000 0.000000 0.000000 10.000000 
L_rear_hand01 0.000000 0.000000 0.000000 0.000000 0.000000 0.000000 10.000000 
L_rear_hand02 0.000000 0.000000 0.000000 0.000000 0.000000 0.000000 10.000000 
L_rear_hand03 0.000000 0.000000 0.000000 0.000000 0.000000 0.000000 10.000000 
#Beginning of Data. Separated by tabs
#Fr	Tx	Ty	Tz	Rx	Ry	Rz	SF
[MASTER]
7 0.000000 0.000000 0.000000 0.001660 0.001660 0.001660 0.000000
8 0.000000 0.000000 0.000000 0.001660 0.001660 0.001660 0.000000
[root]
7 -33.124924 -53.940639 1809.523438 -79.592285 -7.443502 -102.878868 1810.630249
8 -35.509239 -52.666698 2278.663330 -80.464165 -4.717358 -102.535973 2279.548584
[chest]
7 -84.512650 -34.090519 0.000000 24.194845 5.579863 149.488022 91.129311
8 -84.512650 -34.090519 0.000000 25.067749 4.548775 146.797073 91.129311
[L_mid_tent01]
7 27.299520 22.177677 -249.918228 2.840367 16.952505 80.395065 252.381134
8 27.299522 22.177681 -249.918228 1.792589 21.006760 79.241516 252.381134
[R_mid_tent01]
7 23.228794 24.509907 226.238495 157.927277 -40.790497 90.488289 228.744751
8 23.228794 24.509907 226.238495 163.025284 -24.471905 81.902206 228.744751
[spine01]
7 -0.361383 -0.195265 0.000000 0.002062 0.001122 32.879829 0.410763
8 -0.361383 -0.195265 0.000000 0.002062 0.001122 32.879829 0.410763
[Bip01_Neck]
7 165.484543 71.581718 0.000119 176.643677 -1.657967 43.431911 180.302734
8 165.484543 71.581718 0.000119 176.643677 -1.657967 43.431915 180.302734
[L_humerus]
7 -13.983130 -135.272980 -120.471481 170.454727 36.120804 -78.139793 181.680161
8 -13.983130 -135.272980 -120.471481 169.593460 30.310856 -74.664078 181.680161
[R_humerus]
7 -13.983309 -135.273102 125.287651 -177.404678 -35.442207 -85.797302 184.909012
8 -13.983309 -135.273102 125.287651 -177.569992 -29.626867 -85.349297 184.909012
[weapon_bone]
7 235.964890 -300.705902 0.000000 0.000000 -89.951546 -128.212341 382.234833
8 235.964890 -300.705902 0.000000 0.000000 -89.951546 -128.212341 382.234833
[Bip01_Head]
7 213.673889 185.076447 20.027351 31.273605 2.797636 -43.902233 283.391815
8 213.661957 185.109711 19.599684 31.542658 1.828346 -43.898304 283.374634
[eye_left_bone]
7 -24.626970 125.451866 -64.772606 0.000000 -90.000000 -99.840431 143.318359
8 -24.626970 125.451866 -64.772606 0.000000 -90.000000 -99.840431 143.318359
[eye_right_bone]
7 -24.626970 125.451866 64.327362 0.000000 -89.965736 80.156380 143.117676
8 -24.626970 125.451866 64.327362 0.000000 -89.965736 80.156380 143.117676
[L_forearm]
7 322.776093 0.000000 -0.000119 0.000119 -0.002344 -95.807457 322.776093
8 322.776093 0.000000 -0.000119 0.000119 -0.002344 -95.807457 322.776093
[L_front_hand]
7 241.149185 -0.042021 -3.300071 -178.667953 -1.835447 -27.422350 241.171753
8 241.149185 -0.042021 -3.300071 -178.667953 -1.835447 -27.422350 241.171753
[L_weapon_bone]
7 156.183838 0.000000 0.000000 0.000014 0.000007 0.000001 156.183838
8 156.183838 0.000000 0.000000 0.000014 0.000007 0.000001 156.183838
[L_front_hand01_01]
7 86.095154 20.947098 -0.655860 -0.335131 -0.500211 71.723785 88.609184
8 86.095154 20.947098 -0.655860 -0.320921 -0.506953 70.185371 88.609184
[L_front_hand02_01]
7 86.935165 -11.437475 24.513514 149.028946 -58.148323 -55.100948 91.046425
8 86.935165 -11.437475 24.513514 146.961243 -57.333778 -52.657810 91.046425
[L_front_hand03_01]
7 86.637497 -14.123976 -20.424902 -148.918808 56.366669 -56.764694 90.126129
8 86.637497 -14.123976 -20.424902 -146.985443 55.548409 -54.432819 90.126129
[L_front_hand01_02]
7 71.020905 -0.000179 0.000030 0.000317 -0.002326 -105.537254 71.020905
8 71.020905 -0.000179 0.000030 0.000317 -0.002326 -105.513657 71.020905
[L_front_hand02_02]
7 71.020927 -0.000119 0.000060 0.000317 -0.002326 -105.537254 71.020927
8 71.020927 -0.000119 0.000060 0.000317 -0.002326 -105.513657 71.020927
[L_front_hand03_02]
7 71.020905 -0.000060 0.000060 0.000317 -0.002326 -105.537254 71.020905
8 71.020905 -0.000060 0.000060 0.000317 -0.002326 -105.513657 71.020905
[R_forearm]
7 322.776428 -0.000060 0.000030 0.209504 0.012586 -94.339050 322.776428
8 322.776428 -0.000060 0.000030 0.209504 0.012586 -94.339050 322.776428
[R_front_hand]
7 238.847015 -0.006795 2.210259 -2.635298 -10.645461 -26.312506 238.857239
8 238.847015 -0.006795 2.210259 -2.635298 -10.645461 -26.312506 238.857239
[R_weapon_bone]
7 155.664093 0.002503 -0.000030 0.003487 0.001180 -90.988930 155.664078
8 155.664093 0.002503 -0.000030 0.003487 0.001180 -90.988930 155.664078
[R_front_hand01_01]
7 87.624611 14.231146 22.918642 -149.707169 -58.394505 56.007458 91.683487
8 87.624611 14.231146 22.918642 -147.670532 -57.619129 53.605923 91.683487
[R_front_hand02_01]
7 89.356956 14.367283 -19.491137 149.983444 56.758789 58.275921 92.579636
8 89.356956 14.367283 -19.491137 148.052353 55.989693 55.954597 92.579636
[R_front_hand03_01]
7 87.286232 -22.307278 -0.143439 0.134949 -0.432464 -72.452232 90.091743
8 87.286232 -22.307278 -0.143439 0.125269 -0.437058 -70.957245 90.091743
[R_front_hand01_02]
7 71.020905 0.000060 0.000119 0.002323 -0.000334 106.381714 71.020905
8 71.020905 0.000060 0.000119 0.002323 -0.000334 106.381706 71.020905
[R_front_hand02_02]
7 71.020844 -0.000030 -0.000119 0.002323 -0.000334 106.381714 71.020836
8 71.020844 -0.000030 -0.000119 0.002323 -0.000334 106.381706 71.020836
[R_front_hand03_02]
7 71.020905 0.000000 0.000030 0.002323 -0.000334 106.381714 71.020905
8 71.020905 0.000000 0.000030 0.002323 -0.000334 106.381706 71.020905
[null_rope01_connect]
7 328.732483 0.000000 -0.000238 -105.070518 -70.160568 121.447662 328.732483
8 328.732483 0.000000 -0.000238 -118.951668 -68.397987 133.137283 328.732483
[Rope1_Seg01]
7 0.000010 -0.000076 0.000028 -83.167496 65.974564 -82.470291 0.000082
8 0.000012 -0.000076 0.000007 -37.362667 52.991409 -44.558578 0.000078
[Rope1_Seg02]
7 139.999863 -0.000179 0.000000 -1.323971 2.286187 -0.489783 139.999863
8 139.999863 -0.000179 0.000000 -1.376873 4.805158 -2.174999 139.999863
[Rope1_Seg03]
7 139.999924 0.000060 -0.000060 6.989887 -1.913430 -7.414764 139.999924
8 139.999924 0.000060 -0.000060 -2.530020 7.100703 -3.486509 139.999924
[Rope1_Seg04]
7 139.999924 -0.000060 -0.000119 -16.286068 12.371806 10.574151 139.999924
8 139.999924 -0.000060 -0.000119 -5.124200 12.476992 -9.417248 139.999924
[Rope1_Seg05]
7 139.999832 0.000119 -0.000060 -15.465638 10.275674 22.348248 139.999832
8 139.999832 0.000119 -0.000060 -21.724941 12.994411 10.492795 139.999832
[Rope1_Seg06]
7 139.999954 0.000119 -0.000060 -3.251032 1.225592 7.304776 139.999954
8 139.999954 0.000119 -0.000060 -7.569014 1.587476 8.480223 139.999954
[Rope1_Seg07]
7 139.999985 0.000060 0.000000 -1.496804 0.446130 4.092111 139.999985
8 139.999985 0.000060 0.000000 -3.424248 1.151558 3.852268 139.999985
[Rope1_Seg09]
7 121.602913 0.000119 -0.000089 -89.793175 -1.359789 0.847147 121.602913
8 121.602913 0.000119 -0.000089 -89.793175 -1.359789 0.847147 121.602913
[L_mid_hand01]
7 103.859421 1.038730 8.195221 110.549706 -45.072769 -15.392938 104.187431
8 103.859421 1.038730 8.195221 109.437721 -41.837845 -13.776228 104.187431
[L_mid_hand02]
7 105.572853 -4.139662 -10.864139 -149.303925 33.991982 -42.687023 106.211075
8 105.572853 -4.139662 -10.864139 -147.395187 32.186741 -39.191986 106.211075
[L_mid_hand03]
7 104.641464 17.579376 -3.913581 -13.209494 13.449577 48.630802 106.179977
8 104.641464 17.579376 -3.913581 -13.988547 12.638442 45.197113 106.179977
[null_rope02_connect]
7 328.732849 0.000179 -0.000119 -154.474228 41.942486 2.616825 328.732849
8 328.732849 0.000179 -0.000119 -156.409988 59.835491 2.134369 328.732849
[Rope2_Seg01]
7 -0.000052 0.000139 0.000111 106.775833 58.710449 -129.451523 0.000186
8 -0.000061 0.000137 0.000104 111.188431 66.608139 -127.419159 0.000182
[Rope2_Seg02]
7 139.999741 -0.000060 -0.000119 2.541245 1.401031 -8.504238 139.999756
8 139.999741 -0.000060 -0.000119 0.204881 1.601768 -1.385375 139.999756
[Rope2_Seg03]
7 140.000107 0.000030 0.000000 2.256747 0.259111 -5.773375 140.000107
8 140.000107 0.000030 0.000000 0.222093 0.324592 -0.749455 140.000107
[Rope2_Seg04]
7 139.999802 0.000000 -0.000060 1.380977 -1.232779 -2.664660 139.999802
8 139.999802 0.000000 -0.000060 0.231651 -1.818751 0.156274 139.999802
[Rope2_Seg05]
7 139.999985 -0.000060 0.000119 1.459025 1.090735 -3.907636 139.999985
8 139.999985 -0.000060 0.000119 -0.072479 3.339805 -1.524407 139.999985
[Rope2_Seg06]
7 139.999893 -0.000030 -0.000119 4.411589 5.478343 -10.844045 139.999893
8 139.999893 -0.000030 -0.000119 -1.008379 12.323949 -4.879225 139.999893
[Rope2_Seg07]
7 139.999893 0.000060 -0.000060 20.204622 10.169845 -25.582287 139.999893
8 139.999893 0.000060 -0.000060 -2.092849 15.905828 -6.251884 139.999893
[Rope2_Seg09]
7 121.338966 0.000089 -0.000060 33.793236 -1.359788 -0.847141 121.338966
8 121.338966 0.000089 -0.000060 33.793236 -1.359788 -0.847141 121.338966
[R_mid_hand01]
7 104.680779 11.144459 -10.335981 -28.447905 39.731525 52.443081 105.778534
8 104.680779 11.144459 -10.335981 -30.935734 37.970642 48.479172 105.778534
[R_mid_hand02]
7 104.070427 2.443552 8.231699 63.902641 -55.672291 22.558331 104.424065
8 104.070427 2.443552 8.231699 65.980988 -52.455704 19.994473 104.424065
[R_mid_hand03]
7 106.028137 -11.221827 -5.996406 -173.262527 14.339040 -61.789936 106.788818
8 106.028137 -11.221827 -5.996406 -172.374313 13.894678 -58.153652 106.788818
[spine02]
7 129.756927 0.001550 0.000119 -1.023899 -3.926965 6.770993 129.756927
8 129.756927 0.001550 0.000119 -1.023899 -3.926965 6.770993 129.756927
[spine03]
7 78.613892 0.087363 -4.898869 1.040681 4.146420 4.212376 78.766426
8 78.613892 0.087377 -4.898867 1.040680 4.146419 4.212375 78.766426
[pelvis]
7 169.435242 0.051022 0.000000 0.019518 -0.190233 -10.721436 169.435257
8 169.435242 0.051022 0.000000 0.019518 -0.190233 -10.721436 169.435257
[null_rope03_connect]
7 -1.257226 -2.466202 137.391083 -48.282017 -74.838684 113.804253 137.418976
8 -1.257226 -2.466202 137.391083 -51.234306 -75.185318 113.910606 137.418976
[null_rope04_connect]
7 -1.259640 -2.480268 -137.844437 -48.282017 -74.838684 113.804253 137.872513
8 -1.259640 -2.480268 -137.844437 -51.234306 -75.185318 113.910606 137.872513
[Rope3_Seg01]
7 0.000021 -0.000052 0.000083 -131.406708 -6.947071 -70.798958 0.000100
8 0.000024 -0.000051 0.000097 -132.053329 14.018437 -82.196472 0.000112
[Rope3_Seg02]
7 139.999924 -0.000119 0.000060 5.136164 -24.598499 2.469015 139.999924
8 139.999924 -0.000119 0.000060 -4.002778 -24.205357 9.167749 139.999924
[Rope3_Seg03]
7 139.999924 -0.000119 0.000119 16.857779 -41.601234 7.976289 139.999924
8 139.999924 -0.000119 0.000119 -1.464924 -30.255642 11.065163 139.999924
[Rope3_Seg04]
7 139.999924 0.000119 0.000000 6.985531 -11.004219 9.415916 139.999924
8 139.999924 0.000119 0.000000 0.879265 -7.473866 2.045849 139.999924
[Rope3_Seg05]
7 139.999924 -0.000238 0.000060 -1.538360 4.389976 0.368369 139.999924
8 139.999924 -0.000238 0.000060 -1.081409 6.099662 -3.216322 139.999924
[Rope3_Seg06]
7 139.999893 -0.000119 -0.000060 0.690174 0.093034 1.253521 139.999893
8 139.999893 -0.000119 -0.000060 0.190597 1.219758 -0.837141 139.999893
[Rope3_Seg07]
7 139.999771 0.000060 -0.000119 0.704090 0.016204 0.852440 139.999771
8 139.999771 0.000060 -0.000119 0.394950 0.576998 -0.471151 139.999771
[Rope3_Seg08]
7 139.999985 -0.000060 0.000000 0.654561 0.013491 0.525990 139.999985
8 139.999985 -0.000060 0.000000 0.465598 0.363936 -0.303502 139.999985
[Rope3_Seg09]
7 90.185997 -0.000179 -0.000060 89.793228 -1.359877 -0.847183 90.185997
8 90.185997 -0.000179 -0.000060 89.793228 -1.359877 -0.847183 90.185997
[R_rear_hand01]
7 103.366196 -6.073594 -10.757982 -169.896027 22.621883 -54.548435 104.101845
8 103.366196 -6.073594 -10.757982 -168.239929 21.836601 -50.169044 104.101845
[R_rear_hand02]
7 100.509819 12.039542 -7.992327 -24.381296 31.099253 51.752319 101.543350
8 100.509819 12.039542 -7.992327 -26.552095 29.320543 47.442066 101.543350
[R_rear_hand03]
7 101.539970 5.215704 5.435467 80.187744 -54.464619 11.876318 101.819031
8 101.539970 5.215704 5.435467 81.061974 -50.389538 10.772509 101.819031
[Rope4_Seg01]
7 0.000010 -0.000055 -0.000194 47.864368 4.492221 -113.916306 0.000202
8 0.000012 -0.000052 -0.000201 46.146183 20.412363 -113.266945 0.000208
[Rope4_Seg02]
7 139.999985 0.000060 0.000119 -3.178395 -5.680178 -17.917097 139.999985
8 139.999985 0.000060 0.000119 -1.298100 1.773399 -11.657963 139.999985
[Rope4_Seg03]
7 139.999924 0.000000 -0.000238 -4.011070 -5.767014 -12.267724 139.999924
8 139.999924 0.000000 -0.000238 -0.816479 -0.251849 -6.374995 139.999924
[Rope4_Seg04]
7 139.999985 0.000000 0.000119 -10.220621 -0.292363 -15.632201 139.999985
8 139.999985 0.000000 0.000119 -1.788815 2.414084 -8.449183 139.999985
[Rope4_Seg05]
7 139.999802 -0.000060 -0.000119 -25.060219 10.941641 -28.860483 139.999802
8 139.999802 -0.000060 -0.000119 -5.229227 9.307334 -18.118031 139.999802
[Rope4_Seg06]
7 139.999924 0.000000 0.000060 -11.031370 12.317000 -13.685168 139.999924
8 139.999924 0.000000 0.000060 -3.304748 8.176039 -13.838027 139.999924
[Rope4_Seg07]
7 139.999802 0.000000 0.000000 -3.942060 7.490882 -6.021515 139.999802
8 139.999802 0.000000 0.000000 -1.494200 5.549965 -8.715090 139.999802
[Rope4_Seg08]
7 139.999924 0.000000 0.000119 -3.129369 4.154376 -2.919243 139.999924
8 139.999924 0.000000 0.000119 -2.112176 3.128580 -4.688958 139.999924
[Rope4_Seg09]
7 90.185791 0.000060 0.000060 -135.617828 2.228885 0.850567 90.185791
8 90.185791 0.000060 0.000060 -135.617828 2.228885 0.850567 90.185791
[L_rear_hand01]
7 101.696655 -8.392275 -7.654577 -31.684452 -23.583008 144.025742 102.329041
8 101.696655 -8.392275 -7.654577 -31.429779 -23.932976 143.406311 102.329041
[L_rear_hand02]
7 102.726799 -1.568258 5.773216 82.701553 38.753956 171.553619 102.900848
8 102.726799 -1.568258 5.773216 82.628304 39.414528 171.441589 102.900848
[L_rear_hand03]
7 104.552910 9.721220 -10.420293 -163.975403 -19.004421 -142.009338 105.519653
8 104.552910 9.721220 -10.420293 -164.198181 -19.188400 -141.332703 105.519653
